<svg width="10" height="10" xmlns="http://www.w3.org/2000/svg" fill-rule="evenodd" clip-rule="evenodd">
 <g>
  <title>Layer 1</title>
  <path transform="rotate(-0.167239, 4.96115, 5.07143)" d="m4.96115,0.22988c2.70784,0 4.90625,2.16942 4.90625,4.84155s-2.19841,4.84155 -4.90625,4.84155s-4.90625,-2.16942 -4.90625,-4.84155s2.19841,-4.84155 4.90625,-4.84155zm0,0.40346c2.48216,0 4.4974,1.98867 4.4974,4.43809s-2.01524,4.43809 -4.4974,4.43809s-4.4974,-1.98867 -4.4974,-4.43809s2.01524,-4.43809 4.4974,-4.43809zm0,4.43809l2.45313,0l0,0.40346l-2.86198,0l0,-3.63116l0.40886,0l0,3.2277l0,0z" id="svg_1" fill="#ffffff"/>
 </g>

</svg>